<svg width="98" height="42" viewBox="0 0 98 42" fill="none" xmlns="http://www.w3.org/2000/svg">
<g id="Group">
<path id="Vector" d="M97.02 16.2273H0.97998V18.1364H97.02V16.2273Z" fill="white"/>
<path id="Vector_2" d="M97.02 20.0455H0.97998V23.8637H97.02V20.0455Z" fill="white"/>
<path id="Vector_3" d="M97.02 0.95459H0.97998V12.4091H97.02V0.95459Z" fill="white"/>
<path id="Vector_4" d="M58.898 29.591C57.82 29.1137 56.644 28.9228 55.468 29.0182H48.804V41.0455H55.468C56.644 41.0455 57.82 40.8546 58.898 40.4728C59.78 40.091 60.564 39.4228 61.054 38.5637C61.544 37.6092 61.838 36.5592 61.838 35.4137V34.5546C61.838 33.5046 61.642 32.3592 61.054 31.4046C60.564 30.641 59.878 29.9728 58.898 29.591ZM59.878 35.4137C59.976 36.4637 59.584 37.5137 58.8 38.2773C57.918 38.9455 56.742 39.3273 55.566 39.2319H50.96V30.8319H55.566C56.742 30.7364 57.82 31.1182 58.8 31.7864C59.584 32.5501 59.976 33.6001 59.878 34.7455V35.4137Z" fill="white"/>
<path id="Vector_5" d="M77.322 38.3727L67.816 29.0182H66.64H65.758V41.0455H67.816V31.5955L77.322 41.0455H79.38V29.0182H77.322V38.3727Z" fill="white"/>
<path id="Vector_6" d="M94.864 29.0182L90.062 38.3727L85.358 29.0182H83.006L89.278 41.0455H90.846L97.02 29.0182H94.864Z" fill="white"/>
</g>
</svg>
